Coordinates
version=1
nRows=29
nColumns=24
inDegrees=yes

Units are S.I. units (second, meters, Newtons, ...)
Angles are in degrees.

endheader
time	pelvis_tilt	pelvis_list	pelvis_rotation	pelvis_tx	pelvis_ty	pelvis_tz	hip_flexion_r	hip_adduction_r	hip_rotation_r	knee_angle_r	ankle_angle_r	subtalar_angle_r	mtp_angle_r	hip_flexion_l	hip_adduction_l	hip_rotation_l	knee_angle_l	ankle_angle_l	subtalar_angle_l	mtp_angle_l	lumbar_extension	lumbar_bending	lumbar_rotation
      2.90500000	    -10.76069793	      2.00057778	     -5.73069307	     -1.87062119	     -0.04246629	      0.44253502	     -6.67665584	      1.64152028	     10.88758627	    -15.60207427	      6.92730112	      2.55004696	      5.13345695	     36.46886477	      0.83312453	      1.18835062	    -14.05424352	     -6.77788893	      5.22277506	     10.08720788	      7.12498026	     -2.95910312	     13.83286382
      2.91000000	    -10.84335302	      2.30049016	     -5.62528449	     -1.86221981	     -0.04311345	      0.44176606	     -6.57576115	      1.21616847	     10.44219735	    -16.48985407	      6.58675792	      3.44414306	      5.56201190	     36.49974052	      1.33618776	      1.49006829	    -14.65250452	     -7.85493063	      4.89820576	     10.59584930	      7.35867039	     -3.27261195	     13.82541566
      2.91500000	    -10.94888939	      2.62823837	     -5.48388283	     -1.85378218	     -0.04365495	      0.44095644	     -6.40735693	      0.75714110	      9.97798841	    -17.44542300	      6.14040812	      4.40983193	      6.07960315	     36.55720349	      1.88028251	      1.78546935	    -15.24912140	     -8.92444861	      4.56034026	     11.00111868	      7.61602259	     -3.62407476	     13.75962009
      2.92000000	    -11.06311109	      2.96511061	     -5.32102623	     -1.84536749	     -0.04408517	      0.44007441	     -6.18109474	      0.27207816	      9.44496373	    -18.46197386	      5.61007777	      5.48872365	      6.72211701	     36.63895240	      2.45002589	      2.13820082	    -15.87619869	     -9.92612389	      4.13499625	     11.23471450	      7.87336937	     -3.98559029	     13.66258985
      2.92500000	    -11.17110599	      3.29682749	     -5.12531720	     -1.83693293	     -0.04436217	      0.43907669	     -5.91763105	     -0.22931585	      8.84904238	    -19.52944614	      4.91939561	      6.65550582	      7.57078861	     36.70921561	      3.04894495	      2.56180821	    -16.50389794	    -10.82512580	      3.55330748	     11.28393935	      8.11770264	     -4.33856460	     13.53739830
      2.93000000	    -11.27638436	      3.62749610	     -4.92763079	     -1.82854737	     -0.04452968	      0.43802954	     -5.58697359	     -0.75005564	      8.21734945	    -20.68774765	      4.11630736	      7.91080845	      8.60064380	     36.78528004	      3.65908181	      3.03778652	    -17.17293585	    -11.50306941	      2.90600670	     11.07730812	      8.34664592	     -4.69213397	     13.38542735
      2.93500000	    -11.29916140	      3.99083890	     -4.68459346	     -1.82001639	     -0.04447083	      0.43694453	     -5.35275964	     -1.33826820	      7.53588882	    -21.74252198	      2.89572751	      9.02898939	     10.63788595	     36.76383328	      4.33906199	      3.46464941	    -17.87461228	    -11.89535848	      2.31153798	     10.51650032	      8.49841145	     -5.09895075	     13.20810874
      2.94000000	    -11.46254082	      4.26468691	     -4.45849034	     -1.81153948	     -0.04448426	      0.43579747	     -4.85242108	     -1.83373195	      6.85599934	    -23.05031693	      1.83355392	     10.47540584	     11.59132981	     36.90272543	      4.92579106	      3.95545410	    -18.63013942	    -12.10037308	      1.62169503	      9.95654493	      8.79039961	     -5.38417858	     13.07175831
      2.94500000	    -11.40999023	      4.51681487	     -4.26168519	     -1.80317663	     -0.04417190	      0.43462056	     -4.56240198	     -2.35274969	      6.25157694	    -24.23590547	      0.26012790	     11.70694148	     14.00957210	     36.79908380	      5.51441862	      4.43903261	    -19.45405914	    -11.81120960	      1.14168181	      8.69586119	      8.81719543	     -5.65253959	     12.94354577
      2.95000000	    -11.46987085	      4.70987445	     -4.06331303	     -1.79482519	     -0.04390788	      0.43342991	     -4.06319575	     -2.79924018	      5.69790581	    -25.59121692	     -1.27933234	     13.02549178	     15.55722268	     36.79276527	      6.04798190	      4.95794329	    -20.24352065	    -11.56376739	      0.46366761	      7.73067982	      8.96219050	     -5.84756866	     12.81157804
      2.95500000	    -11.46946573	      4.91161876	     -3.87363844	     -1.78646742	     -0.04354619	      0.43227698	     -3.57712687	     -3.27387962	      5.16864598	    -26.95725174	     -3.00600121	     14.27705291	     17.39266245	     36.69701118	      6.58319646	      5.39635104	    -21.03171241	    -11.03230944	      0.02308130	      6.63175170	      9.04171691	     -6.05744511	     12.69126166
      2.96000000	    -11.44175631	      5.09701040	     -3.70171271	     -1.77817591	     -0.04311873	      0.43120411	     -3.05977139	     -3.72881765	      4.71665410	    -28.35794885	     -4.85286714	     15.39318905	     19.16785528	     36.54191947	      7.08293763	      5.76539611	    -21.78212135	    -10.35992264	     -0.27679535	      5.58423795	      9.08047309	     -6.25362340	     12.58076058
      2.96500000	    -11.44922098	      5.30570398	     -3.51912418	     -1.76996187	     -0.04271852	      0.43016577	     -2.41859411	     -4.20322665	      4.26932535	    -29.87343873	     -6.64633316	     16.39420929	     20.43037726	     36.38851592	      7.59710699	      6.08176659	    -22.44375711	     -9.78451009	     -0.63345117	      4.77325447	      9.14831689	     -6.47800174	     12.45572780
      2.97000000	    -11.41520038	      5.49937968	     -3.36542253	     -1.76181851	     -0.04225999	      0.42915932	     -1.78301894	     -4.65594689	      3.95892226	    -31.36711248	     -8.48350876	     17.23022688	     21.72436944	     36.15049286	      8.07598072	      6.33140751	    -23.04977977	     -9.06664875	     -0.88389150	      3.89950545	      9.16376282	     -6.67650397	     12.34296230
      2.97500000	    -11.36455396	      5.67777065	     -3.23193674	     -1.75394679	     -0.04179484	      0.42823827	     -1.07834202	     -5.07446265	      3.73595640	    -32.94962912	    -10.13932812	     17.93647381	     22.62521974	     35.86832176	      8.51087566	      6.54807523	    -23.57183966	     -8.40979845	     -1.09019951	      3.26014485	      9.12246754	     -6.86440001	     12.26126235
      2.98000000	    -11.34440221	      5.92074146	     -3.08668979	     -1.74609279	     -0.04138210	      0.42738240	     -0.28693457	     -5.54849397	      3.52209998	    -34.58992197	    -11.56067242	     18.41706769	     23.17167693	     35.56806683	      8.98984207	      6.69825674	    -23.97513105	     -7.82931348	     -1.30175139	      2.81054225	      9.11949663	     -7.12555502	     12.17084782
      2.98500000	    -11.28415504	      6.19001452	     -2.94904240	     -1.73832334	     -0.04093128	      0.42670675	      0.50626178	     -6.01812104	      3.34598472	    -36.26978902	    -12.73460629	     18.51830530	     23.27167514	     35.17210495	      9.45647081	      6.76487990	    -24.24211129	     -7.33907415	     -1.48030876	      2.78131194	      9.06712912	     -7.43133496	     12.05002071
      2.99000000	    -11.32930231	      6.47144040	     -2.81342523	     -1.73077303	     -0.04063866	      0.42584197	      1.48417628	     -6.50825316	      3.22014127	    -37.98852255	    -13.63017027	     18.49443672	     23.71255994	     34.88579783	      9.95502708	      6.88043499	    -24.51635338	     -6.79131158	     -1.75367291	      2.10247055	      9.10132439	     -7.71295384	     11.98508255
      2.99500000	    -11.30593991	      6.77639901	     -2.69039590	     -1.72328324	     -0.04025002	      0.42518504	      2.41817476	     -6.99139478	      3.11109865	    -39.71276796	    -14.30629234	     18.02825017	     23.77813068	     34.47845912	     10.43053684	      6.85566802	    -24.65547244	     -6.34668060	     -1.97402867	      1.89749372	      9.05775823	     -8.04131050	     11.85602292
      3.00000000	    -11.31186072	      7.10582321	     -2.55841821	     -1.71589441	     -0.03992751	      0.42453054	      3.41954043	     -7.49019357	      3.01064936	    -41.45215272	    -14.69891273	     17.29317375	     23.77249322	     34.06935233	     10.92635172	      6.85791147	    -24.72114311	     -5.92611958	     -2.19142908	      1.72048006	      9.03562854	     -8.39271261	     11.72682255
      3.00500000	    -11.28192732	      7.46556980	     -2.39676709	     -1.70850735	     -0.03957810	      0.42388378	      4.38240369	     -8.02548004	      2.86731267	    -43.14883603	    -14.88306260	     16.32883657	     23.74644370	     33.57562684	     11.45394434	      6.86060054	    -24.69342677	     -5.51159282	     -2.32044972	      1.72670198	      8.97451194	     -8.78302630	     11.55190732
      3.01000000	    -11.34051190	      7.77311592	     -2.31890114	     -1.70135130	     -0.03923430	      0.42331782	      5.52061420	     -8.45984058	      2.86003115	    -44.85860623	    -15.07498789	     14.94558947	     23.45448557	     33.17521449	     11.88296049	      6.81664388	    -24.64377218	     -5.17506504	     -2.61032374	      1.50796129	      8.99044630	     -9.09275050	     11.47401635
      3.01500000	    -11.46004240	      8.07227623	     -2.19245628	     -1.69420390	     -0.03897392	      0.42273930	      6.73417888	     -8.88696389	      2.80307861	    -46.56969036	    -15.03342576	     13.54745380	     22.65966708	     32.82525012	     12.30313120	      6.77606562	    -24.58526775	     -4.67356080	     -2.60599789	      1.26736670	      9.07004456	     -9.40054535	     11.32880428
      3.02000000	    -11.42167388	      8.38026726	     -2.11539646	     -1.68705891	     -0.03841457	      0.42221217	      7.76168999	     -9.32231507	      2.77753170	    -48.11161589	    -15.12909323	     11.87939527	     22.28423303	     32.23982868	     12.72472855	      6.74963585	    -24.38661753	     -4.36725317	     -2.82226999	      1.22764491	      8.98461367	     -9.71121782	     11.21151118
      3.02500000	    -11.42929171	      8.63513563	     -2.04455931	     -1.68001030	     -0.03782060	      0.42170835	      8.86093610	     -9.68700058	      2.77203623	    -49.59989355	    -15.23834598	     10.15799717	     21.72683783	     31.69478636	     13.07807137	      6.72919998	    -24.17205783	     -4.06107081	     -2.95952292	      1.21438088	      8.93749544	     -9.96300204	     11.08544435
      3.03000000	    -11.46141006	      8.84461851	     -1.99025321	     -1.67292454	     -0.03717101	      0.42123153	      9.98172739	     -9.99076312	      2.78950190	    -51.00219895	    -15.29302048	      8.47271112	     20.97896762	     31.14409866	     13.37247990	      6.73305822	    -23.91767946	     -3.71442584	     -3.05098135	      1.22772400	      8.93298482	    -10.15664865	     10.96261339
      3.03500000	    -11.56199881	      8.99945332	     -1.90363724	     -1.66599840	     -0.03657067	      0.42076446	     11.20795385	    -10.23555728	      2.76682587	    -52.42925210	    -15.11966784	      7.07632217	     19.42315516	     30.68727250	     13.60648461	      6.74301657	    -23.70231030	     -3.30396403	     -2.93163018	      1.29473575	      8.97313932	    -10.30158384	     10.81929293
      3.04000000	    -11.51694531	      9.18538764	     -1.90341685	     -1.65904007	     -0.03564130	      0.42030315	     12.25969358	    -10.51477452	      2.83686885	    -53.62263669	    -15.20801598	      5.64178645	     19.00850006	     30.01557245	     13.86494918	      6.76479960	    -23.36618418	     -3.09677535	     -3.12059115	      1.22971720	      8.87634996	    -10.45704326	     10.72241171
      3.04500000	    -11.57189775	      9.24851351	     -1.90837610	     -1.65203848	     -0.03471878	      0.41992176	     13.40451156	    -10.62309963	      2.92421688	    -54.73734818	    -15.21439925	      4.34333581	     18.18096783	     29.42297185	     13.98058038	      6.87195975	    -23.02131064	     -2.77025853	     -3.17485135	      1.22101716	      8.90496231	    -10.47866085	     10.64575732
